<?xml version="1.0" encoding="UTF-8"?>
<!-- Generated by Pixelmator Pro 3.6.14 -->
<svg width="1024" height="1024" viewBox="0 0 1024 1024" xmlns="http://www.w3.org/2000/svg">
    <filter id="filter1" x="0" y="0" width="1024" height="1024" filterUnits="userSpaceOnUse" primitiveUnits="userSpaceOnUse" color-interpolation-filters="sRGB">
        <feGaussianBlur stdDeviation="44"/>
        <feOffset dx="25.455844" dy="25.455844" result="offsetblur"/>
        <feFlood flood-color="#000000" flood-opacity="0.5"/>
        <feComposite in2="offsetblur" operator="in"/>
        <feMerge>
            <feMergeNode/>
            <feMergeNode in="SourceGraphic"/>
        </feMerge>
    </filter>
    <path id="Rounded-Rectangle" fill="#ffffff" fill-rule="evenodd" stroke="none" filter="url(#filter1)" d="M 102 769 C 102 853.499573 170.500427 922 255 922 L 768 922 C 852.499573 922 921 853.499573 921 769 L 921 256 C 921 171.500427 852.499573 103 768 103 L 255 103 C 170.500427 103 102 171.500427 102 256 Z"/>
    <filter id="filter2" x="0" y="0" width="1024" height="1024" filterUnits="userSpaceOnUse" primitiveUnits="userSpaceOnUse" color-interpolation-filters="sRGB">
        <feGaussianBlur stdDeviation="18"/>
        <feOffset dx="14.142136" dy="14.142136" result="offsetblur"/>
        <feFlood flood-color="#000000" flood-opacity="0.5"/>
        <feComposite in2="offsetblur" operator="in"/>
        <feMerge>
            <feMergeNode/>
            <feMergeNode in="SourceGraphic"/>
        </feMerge>
    </filter>
    <path id="path1-copy-2" fill="#3454d1" fill-rule="evenodd" stroke="none" filter="url(#filter2)" d="M 636.98822 278.730042 C 617.491333 276.603149 600.387573 281.831726 585.67627 294.416077 C 570.965027 307.000427 563.077759 323.040771 562.014343 342.537598 L 552.443176 441.971069 L 650.281433 441.971069 L 650.281433 512.159424 L 545.530701 512.159424 L 531.174011 688.161926 C 527.983643 726.446655 511.677399 758.084229 482.254852 783.075684 C 452.832336 808.067078 419.156464 818.967407 381.226227 815.777039 C 358.184479 813.650146 337.447235 806.826294 319.013855 795.30542 C 300.580475 783.784607 285.337708 768.807678 273.285095 750.374268 L 325.394592 698.264771 C 329.648438 711.380859 337.269836 722.28125 348.258972 730.966187 C 359.248138 739.651123 371.832245 744.525269 386.01178 745.588745 C 405.508606 747.715637 422.612457 742.487061 437.3237 729.90271 C 452.034973 717.318359 459.922211 701.277954 460.985687 681.781128 L 477.469299 512.159424 L 372.718536 512.159424 L 372.718536 441.971069 L 482.254852 441.971069 L 491.825989 336.15686 C 495.016388 297.87207 511.322601 266.234558 540.745117 241.243103 C 570.167664 216.251648 603.843567 205.351379 641.773804 208.541748 C 664.815552 210.66864 685.552795 217.492432 703.986145 229.013306 C 722.419495 240.534241 737.662292 255.511108 749.714905 273.944458 L 697.605408 326.054016 C 693.351563 312.937927 685.730103 302.037598 674.741028 293.3526 C 663.751953 284.667603 651.167725 279.793518 636.98822 278.730042 Z"/>
    <filter id="filter3" x="0" y="0" width="1024" height="1024" filterUnits="userSpaceOnUse" primitiveUnits="userSpaceOnUse" color-interpolation-filters="sRGB">
        <feGaussianBlur stdDeviation="18"/>
        <feOffset dx="14.142136" dy="14.142136" result="offsetblur"/>
        <feFlood flood-color="#000000" flood-opacity="0.5"/>
        <feComposite in2="offsetblur" operator="in"/>
        <feMerge>
            <feMergeNode/>
            <feMergeNode in="SourceGraphic"/>
        </feMerge>
    </filter>
    <path id="path1-copy" fill="#3454d1" fill-rule="evenodd" stroke="none" filter="url(#filter3)" d="M 636.98822 278.730042 C 617.491333 276.603149 600.387573 281.831726 585.67627 294.416077 C 570.965027 307.000427 563.077759 323.040771 562.014343 342.537598 L 552.443176 441.971069 L 650.281433 441.971069 L 650.281433 512.159424 L 545.530701 512.159424 L 531.174011 688.161926 C 527.983643 726.446655 511.677399 758.084229 482.254852 783.075684 C 452.832336 808.067078 419.156464 818.967407 381.226227 815.777039 C 358.184479 813.650146 337.447235 806.826294 319.013855 795.30542 C 300.580475 783.784607 285.337708 768.807678 273.285095 750.374268 L 325.394592 698.264771 C 329.648438 711.380859 337.269836 722.28125 348.258972 730.966187 C 359.248138 739.651123 371.832245 744.525269 386.01178 745.588745 C 405.508606 747.715637 422.612457 742.487061 437.3237 729.90271 C 452.034973 717.318359 459.922211 701.277954 460.985687 681.781128 L 477.469299 512.159424 L 372.718536 512.159424 L 372.718536 441.971069 L 482.254852 441.971069 L 491.825989 336.15686 C 495.016388 297.87207 511.322601 266.234558 540.745117 241.243103 C 570.167664 216.251648 603.843567 205.351379 641.773804 208.541748 C 664.815552 210.66864 685.552795 217.492432 703.986145 229.013306 C 722.419495 240.534241 737.662292 255.511108 749.714905 273.944458 L 697.605408 326.054016 C 693.351563 312.937927 685.730103 302.037598 674.741028 293.3526 C 663.751953 284.667603 651.167725 279.793518 636.98822 278.730042 Z"/>
</svg>
